<svg width="1280" height="720" xmlns="http://www.w3.org/2000/svg" xmlns:xlink="http://www.w3.org/1999/xlink" overflow="hidden"><defs><clipPath id="clip0"><rect x="0" y="0" width="1280" height="720"/></clipPath></defs><g clip-path="url(#clip0)"><rect x="0" y="0" width="1280" height="720" fill="#FFFFFF"/><path d="M166.737 165.052 222.316 165.052 222.316 245.895 166.737 245.895Z" fill="#F1C5A2" fill-rule="evenodd"/><path d="M222.316 165.052 506.393 165.052 506.393 245.895 222.316 245.895Z" fill="#F1C5A2" fill-rule="evenodd"/><path d="M506.393 165.052 894.316 165.052 894.316 245.895 506.393 245.895Z" fill="#F1C5A2" fill-rule="evenodd"/><path d="M32 245.895 166.737 245.895 166.737 284.632 32 284.632Z" fill="#F1C5A2" fill-rule="evenodd"/><path d="M166.737 245.895 222.316 245.895 222.316 284.632 166.737 284.632Z" fill="#F1C5A2" fill-rule="evenodd"/><path d="M222.316 245.895 506.393 245.895 506.393 284.632 222.316 284.632Z" fill="#F1C5A2" fill-rule="evenodd"/><path d="M506.393 245.895 894.316 245.895 894.316 284.632 506.393 284.632Z" fill="#F1C5A2" fill-rule="evenodd"/><path d="M32 284.632 166.737 284.632 166.737 320 32 320Z" fill="#F1C5A2" fill-rule="evenodd"/><path d="M166.737 284.632 222.316 284.632 222.316 320 166.737 320Z" fill="#F1C5A2" fill-rule="evenodd"/><path d="M222.316 284.632 506.393 284.632 506.393 320 222.316 320Z" fill="#F1C5A2" fill-rule="evenodd"/><path d="M506.393 284.632 894.316 284.632 894.316 320 506.393 320Z" fill="#F1C5A2" fill-rule="evenodd"/><path d="M1142.66 284.632 1217.87 284.632 1217.87 320 1142.66 320Z" fill="#F1C5A2" fill-rule="evenodd"/><path d="M166.737 320 222.316 320 222.316 395.283 166.737 395.283Z" fill="#F1C5A2" fill-rule="evenodd"/><path d="M222.316 320 506.393 320 506.393 395.283 222.316 395.283Z" fill="#F1C5A2" fill-rule="evenodd"/><path d="M506.393 320 894.316 320 894.316 395.283 506.393 395.283Z" fill="#F1C5A2" fill-rule="evenodd"/><path d="M894.316 320 983.579 320 983.579 395.283 894.316 395.283Z" fill="#F1C5A2" fill-rule="evenodd"/><path d="M983.579 320 1142.66 320 1142.66 395.283 983.579 395.283Z" fill="#F1C5A2" fill-rule="evenodd"/><path d="M1142.66 320 1217.87 320 1217.87 395.283 1142.66 395.283Z" fill="#F1C5A2" fill-rule="evenodd"/><path d="M1217.87 320 1241.26 320 1241.26 395.283 1217.87 395.283Z" fill="#F1C5A2" fill-rule="evenodd"/><path d="M222.316 395.283 506.393 395.283 506.393 451.156 222.316 451.156Z" fill="#F1C5A2" fill-rule="evenodd"/><path d="M506.393 395.283 894.316 395.283 894.316 451.156 506.393 451.156Z" fill="#F1C5A2" fill-rule="evenodd"/><path d="M894.316 395.283 983.579 395.283 983.579 451.156 894.316 451.156Z" fill="#F1C5A2" fill-rule="evenodd"/><path d="M983.579 395.283 1142.66 395.283 1142.66 451.156 983.579 451.156Z" fill="#F1C5A2" fill-rule="evenodd"/><path d="M1142.66 395.283 1217.87 395.283 1217.87 451.156 1142.66 451.156Z" fill="#F1C5A2" fill-rule="evenodd"/><path d="M1217.87 395.283 1241.26 395.283 1241.26 451.156 1217.87 451.156Z" fill="#F1C5A2" fill-rule="evenodd"/><path d="M983.579 451.156 1142.66 451.156 1142.66 548.252 983.579 548.252Z" fill="#F1C5A2" fill-rule="evenodd"/><path d="M1142.66 451.156 1217.87 451.156 1217.87 548.252 1142.66 548.252Z" fill="#F1C5A2" fill-rule="evenodd"/><path d="M1217.87 451.156 1241.26 451.156 1241.26 548.252 1217.87 548.252Z" fill="#F1C5A2" fill-rule="evenodd"/><path d="M166.737 164.386 166.737 246.561" stroke="#000000" stroke-width="1.33333" stroke-linejoin="round" stroke-miterlimit="10" fill="none" fill-rule="evenodd"/><path d="M166.737 319.333 166.737 395.949" stroke="#000000" stroke-width="1.33333" stroke-linejoin="round" stroke-miterlimit="10" fill="none" fill-rule="evenodd"/><path d="M222.316 394.616 222.316 451.823" stroke="#000000" stroke-width="1.33333" stroke-linejoin="round" stroke-miterlimit="10" fill="none" fill-rule="evenodd"/><path d="M894.316 164.386 894.316 320.667" stroke="#000000" stroke-width="1.33333" stroke-linejoin="round" stroke-miterlimit="10" fill="none" fill-rule="evenodd"/><path d="M983.579 450.489 983.579 548.919" stroke="#000000" stroke-width="1.33333" stroke-linejoin="round" stroke-miterlimit="10" fill="none" fill-rule="evenodd"/><path d="M1142.66 283.965 1142.66 320.667" stroke="#000000" stroke-width="1.33333" stroke-linejoin="round" stroke-miterlimit="10" fill="none" fill-rule="evenodd"/><path d="M1217.87 283.965 1217.87 320.667" stroke="#000000" stroke-width="1.33333" stroke-linejoin="round" stroke-miterlimit="10" fill="none" fill-rule="evenodd"/><path d="M31.3333 245.895 167.403 245.895" stroke="#000000" stroke-width="1.33333" stroke-linejoin="round" stroke-miterlimit="10" fill="none" fill-rule="evenodd"/><path d="M1141.99 284.632 1218.53 284.632" stroke="#000000" stroke-width="1.33333" stroke-linejoin="round" stroke-miterlimit="10" fill="none" fill-rule="evenodd"/><path d="M31.3333 320 167.403 320" stroke="#000000" stroke-width="1.33333" stroke-linejoin="round" stroke-miterlimit="10" fill="none" fill-rule="evenodd"/><path d="M893.649 320 1143.32 320" stroke="#000000" stroke-width="1.33333" stroke-linejoin="round" stroke-miterlimit="10" fill="none" fill-rule="evenodd"/><path d="M1217.2 320 1241.93 320" stroke="#000000" stroke-width="1.33333" stroke-linejoin="round" stroke-miterlimit="10" fill="none" fill-rule="evenodd"/><path d="M166.07 395.283 222.982 395.283" stroke="#000000" stroke-width="1.33333" stroke-linejoin="round" stroke-miterlimit="10" fill="none" fill-rule="evenodd"/><path d="M221.649 451.156 984.246 451.156" stroke="#000000" stroke-width="1.33333" stroke-linejoin="round" stroke-miterlimit="10" fill="none" fill-rule="evenodd"/><path d="M32 245.228 32 320.667" stroke="#000000" stroke-width="1.33333" stroke-linejoin="round" stroke-miterlimit="10" fill="none" fill-rule="evenodd"/><path d="M1241.26 319.333 1241.26 548.919" stroke="#000000" stroke-width="1.33333" stroke-linejoin="round" stroke-miterlimit="10" fill="none" fill-rule="evenodd"/><path d="M166.07 165.052 894.982 165.052" stroke="#000000" stroke-width="1.33333" stroke-linejoin="round" stroke-miterlimit="10" fill="none" fill-rule="evenodd"/><path d="M982.912 548.252 1241.93 548.252" stroke="#000000" stroke-width="1.33333" stroke-linejoin="round" stroke-miterlimit="10" fill="none" fill-rule="evenodd"/><path d="M462.5 362C462.5 356.753 466.753 352.5 472 352.5 477.247 352.5 481.5 356.753 481.5 362 481.5 367.247 477.247 371.5 472 371.5 466.753 371.5 462.5 367.247 462.5 362Z" stroke="#000000" stroke-width="1.33333" stroke-miterlimit="8" fill="#FFFFCF" fill-rule="evenodd"/><path d="M205.5 265.5C205.5 259.977 209.753 255.5 215 255.5 220.247 255.5 224.5 259.977 224.5 265.5 224.5 271.023 220.247 275.5 215 275.5 209.753 275.5 205.5 271.023 205.5 265.5Z" stroke="#000000" stroke-width="1.33333" stroke-miterlimit="8" fill="#FFFFCF" fill-rule="evenodd"/><rect x="238.5" y="197.5" width="16" height="16" stroke="#000000" stroke-width="1.33333" stroke-miterlimit="8" fill="#7F7F7F"/><path d="M238.5 197.5 254.625 213.625" stroke="#000000" stroke-width="0.666667" stroke-miterlimit="8" fill="#7F7F7F" fill-rule="evenodd"/><path d="M0 0 16.1247 16.1247" stroke="#000000" stroke-width="0.666667" stroke-miterlimit="8" fill="#7F7F7F" fill-rule="evenodd" transform="matrix(-1 0 0 1 254.625 197.5)"/><rect x="297.5" y="275.5" width="16" height="17" stroke="#000000" stroke-width="1.33333" stroke-miterlimit="8" fill="#7F7F7F"/><path d="M297.5 275.5 313.625 291.625" stroke="#000000" stroke-width="0.666667" stroke-miterlimit="8" fill="#7F7F7F" fill-rule="evenodd"/><path d="M0 0 16.1247 16.1247" stroke="#000000" stroke-width="0.666667" stroke-miterlimit="8" fill="#7F7F7F" fill-rule="evenodd" transform="matrix(-1 0 0 1 313.625 275.5)"/><path d="M297.5 314.167C297.5 312.694 298.694 311.5 300.167 311.5L310.833 311.5C312.306 311.5 313.5 312.694 313.5 314.167L313.5 324.833C313.5 326.306 312.306 327.5 310.833 327.5L300.167 327.5C298.694 327.5 297.5 326.306 297.5 324.833Z" stroke="#000000" stroke-width="1.33333" stroke-miterlimit="8" fill="#FFFFCF" fill-rule="evenodd"/><rect x="238.5" y="319.5" width="17" height="16" stroke="#000000" stroke-width="1.33333" stroke-miterlimit="8" fill="#7F7F7F"/><path d="M238.5 319.5 254.625 335.625" stroke="#000000" stroke-width="0.666667" stroke-miterlimit="8" fill="#7F7F7F" fill-rule="evenodd"/><path d="M0 0 16.1247 16.1247" stroke="#000000" stroke-width="0.666667" stroke-miterlimit="8" fill="#7F7F7F" fill-rule="evenodd" transform="matrix(-1 0 0 1 254.625 319.5)"/><rect x="459.5" y="240.5" width="16" height="17" stroke="#000000" stroke-width="1.33333" stroke-miterlimit="8" fill="#7F7F7F"/><path d="M459.5 240.5 475.625 256.625" stroke="#000000" stroke-width="0.666667" stroke-miterlimit="8" fill="#7F7F7F" fill-rule="evenodd"/><path d="M0 0 16.1247 16.1247" stroke="#000000" stroke-width="0.666667" stroke-miterlimit="8" fill="#7F7F7F" fill-rule="evenodd" transform="matrix(-1 0 0 1 475.625 240.5)"/><rect x="531.5" y="241.5" width="16" height="16" stroke="#000000" stroke-width="1.33333" stroke-miterlimit="8" fill="#7F7F7F"/><path d="M531.5 241.5 547.625 257.625" stroke="#000000" stroke-width="0.666667" stroke-miterlimit="8" fill="#7F7F7F" fill-rule="evenodd"/><path d="M0 0 16.1247 16.1247" stroke="#000000" stroke-width="0.666667" stroke-miterlimit="8" fill="#7F7F7F" fill-rule="evenodd" transform="matrix(-1 0 0 1 547.625 241.5)"/><rect x="176.5" y="327.5" width="29" height="59" stroke="#000000" stroke-width="1.33333" stroke-miterlimit="8" fill="#ECE1D1"/><rect x="238.5" y="411.5" width="59" height="30" stroke="#000000" stroke-width="1.33333" stroke-miterlimit="8" fill="#ECE1D1"/><rect x="721.5" y="266.5" width="17" height="16" stroke="#000000" stroke-width="1.33333" stroke-miterlimit="8" fill="#7F7F7F"/><path d="M721.5 266.5 737.625 282.625" stroke="#000000" stroke-width="0.666667" stroke-miterlimit="8" fill="#7F7F7F" fill-rule="evenodd"/><path d="M0 0 16.1247 16.1247" stroke="#000000" stroke-width="0.666667" stroke-miterlimit="8" fill="#7F7F7F" fill-rule="evenodd" transform="matrix(-1 0 0 1 737.625 266.5)"/><rect x="1099.5" y="511.5" width="16" height="16" stroke="#000000" stroke-width="1.33333" stroke-miterlimit="8" fill="#7F7F7F"/><path d="M1099.5 511.5 1115.62 527.625" stroke="#000000" stroke-width="0.666667" stroke-miterlimit="8" fill="#7F7F7F" fill-rule="evenodd"/><path d="M0 0 16.1247 16.1247" stroke="#000000" stroke-width="0.666667" stroke-miterlimit="8" fill="#7F7F7F" fill-rule="evenodd" transform="matrix(-1 0 0 1 1115.62 511.5)"/><rect x="1150.5" y="293.5" width="59" height="30" stroke="#000000" stroke-width="1.33333" stroke-miterlimit="8" fill="#2FCCFD"/><rect x="176.5" y="179.5" width="29" height="59" stroke="#000000" stroke-width="1.33333" stroke-miterlimit="8" fill="#2FCCFD"/><path d="M264.5 238.167C264.5 236.694 265.694 235.5 267.167 235.5L277.833 235.5C279.306 235.5 280.5 236.694 280.5 238.167L280.5 248.833C280.5 250.306 279.306 251.5 277.833 251.5L267.167 251.5C265.694 251.5 264.5 250.306 264.5 248.833Z" stroke="#000000" stroke-width="1.33333" stroke-miterlimit="8" fill="#FFFFCF" fill-rule="evenodd"/><path d="M280.5 238.167C280.5 236.694 281.694 235.5 283.167 235.5L293.833 235.5C295.306 235.5 296.5 236.694 296.5 238.167L296.5 249.833C296.5 251.306 295.306 252.5 293.833 252.5L283.167 252.5C281.694 252.5 280.5 251.306 280.5 249.833Z" stroke="#000000" stroke-width="1.33333" stroke-miterlimit="8" fill="#FFFFCF" fill-rule="evenodd"/><path d="M248.5 278.167C248.5 276.694 249.694 275.5 251.167 275.5L262.833 275.5C264.306 275.5 265.5 276.694 265.5 278.167L265.5 288.833C265.5 290.306 264.306 291.5 262.833 291.5L251.167 291.5C249.694 291.5 248.5 290.306 248.5 288.833Z" stroke="#000000" stroke-width="1.33333" stroke-miterlimit="8" fill="#FFFFCF" fill-rule="evenodd"/><path d="M265.5 278.167C265.5 276.694 266.694 275.5 268.167 275.5L278.833 275.5C280.306 275.5 281.5 276.694 281.5 278.167L281.5 289.833C281.5 291.306 280.306 292.5 278.833 292.5L268.167 292.5C266.694 292.5 265.5 291.306 265.5 289.833Z" stroke="#000000" stroke-width="1.33333" stroke-miterlimit="8" fill="#FFFFCF" fill-rule="evenodd"/><path d="M273.5 200.167C273.5 198.694 274.694 197.5 276.167 197.5L286.833 197.5C288.306 197.5 289.5 198.694 289.5 200.167L289.5 210.833C289.5 212.306 288.306 213.5 286.833 213.5L276.167 213.5C274.694 213.5 273.5 212.306 273.5 210.833Z" stroke="#000000" stroke-width="1.33333" stroke-miterlimit="8" fill="#FFFFCF" fill-rule="evenodd"/><path d="M289.5 200.167C289.5 198.694 290.694 197.5 292.167 197.5L302.833 197.5C304.306 197.5 305.5 198.694 305.5 200.167L305.5 210.833C305.5 212.306 304.306 213.5 302.833 213.5L292.167 213.5C290.694 213.5 289.5 212.306 289.5 210.833Z" stroke="#000000" stroke-width="1.33333" stroke-miterlimit="8" fill="#FFFFCF" fill-rule="evenodd"/><path d="M602.5 204.167C602.5 202.694 603.694 201.5 605.167 201.5L616.833 201.5C618.306 201.5 619.5 202.694 619.5 204.167L619.5 214.833C619.5 216.306 618.306 217.5 616.833 217.5L605.167 217.5C603.694 217.5 602.5 216.306 602.5 214.833Z" stroke="#000000" stroke-width="1.33333" stroke-miterlimit="8" fill="#FFFFCF" fill-rule="evenodd"/><rect x="305.5" y="411.5" width="59" height="30" stroke="#000000" stroke-width="1.33333" stroke-miterlimit="8" fill="#ECE1D1"/><rect x="371.5" y="411.5" width="60" height="30" stroke="#000000" stroke-width="1.33333" stroke-miterlimit="8" fill="#ECE1D1"/><rect x="437.5" y="411.5" width="59" height="29" stroke="#000000" stroke-width="1.33333" stroke-miterlimit="8" fill="#ECE1D1"/><rect x="504.5" y="411.5" width="59" height="29" stroke="#000000" stroke-width="1.33333" stroke-miterlimit="8" fill="#ECE1D1"/><rect x="570.5" y="411.5" width="60" height="29" stroke="#000000" stroke-width="1.33333" stroke-miterlimit="8" fill="#ECE1D1"/><rect x="636.5" y="411.5" width="59" height="29" stroke="#000000" stroke-width="1.33333" stroke-miterlimit="8" fill="#ECE1D1"/><rect x="703.5" y="411.5" width="59" height="29" stroke="#000000" stroke-width="1.33333" stroke-miterlimit="8" fill="#ECE1D1"/><rect x="769.5" y="411.5" width="60" height="29" stroke="#000000" stroke-width="1.33333" stroke-miterlimit="8" fill="#ECE1D1"/><rect x="835.5" y="411.5" width="59" height="29" stroke="#000000" stroke-width="1.33333" stroke-miterlimit="8" fill="#ECE1D1"/><rect x="902.5" y="411.5" width="59" height="29" stroke="#000000" stroke-width="1.33333" stroke-miterlimit="8" fill="#ECE1D1"/><rect x="452.5" y="178.5" width="29" height="60" stroke="#000000" stroke-width="1.33333" stroke-miterlimit="8" fill="#ECE1D1"/><rect x="452.5" y="259.5" width="29" height="60" stroke="#000000" stroke-width="1.33333" stroke-miterlimit="8" fill="#ECE1D1"/><rect x="524.5" y="179.5" width="29" height="60" stroke="#000000" stroke-width="1.33333" stroke-miterlimit="8" fill="#ECE1D1"/><rect x="524.5" y="260.5" width="29" height="59" stroke="#000000" stroke-width="1.33333" stroke-miterlimit="8" fill="#ECE1D1"/><path d="M178.5 265.5C178.5 259.977 182.977 255.5 188.5 255.5 194.023 255.5 198.5 259.977 198.5 265.5 198.5 271.023 194.023 275.5 188.5 275.5 182.977 275.5 178.5 271.023 178.5 265.5Z" stroke="#000000" stroke-width="1.33333" stroke-miterlimit="8" fill="#FFFFCF" fill-rule="evenodd"/><path d="M152.5 265.5C152.5 259.977 156.753 255.5 162 255.5 167.247 255.5 171.5 259.977 171.5 265.5 171.5 271.023 167.247 275.5 162 275.5 156.753 275.5 152.5 271.023 152.5 265.5Z" stroke="#000000" stroke-width="1.33333" stroke-miterlimit="8" fill="#FFFFCF" fill-rule="evenodd"/><path d="M125.5 265.5C125.5 259.977 129.753 255.5 135 255.5 140.247 255.5 144.5 259.977 144.5 265.5 144.5 271.023 140.247 275.5 135 275.5 129.753 275.5 125.5 271.023 125.5 265.5Z" stroke="#000000" stroke-width="1.33333" stroke-miterlimit="8" fill="#FFFFCF" fill-rule="evenodd"/><path d="M98.5001 265.5C98.5001 259.977 102.753 255.5 108 255.5 113.247 255.5 117.5 259.977 117.5 265.5 117.5 271.023 113.247 275.5 108 275.5 102.753 275.5 98.5001 271.023 98.5001 265.5Z" stroke="#000000" stroke-width="1.33333" stroke-miterlimit="8" fill="#FFFFCF" fill-rule="evenodd"/><path d="M71.5001 265.5C71.5001 259.977 75.7533 255.5 81.0001 255.5 86.2468 255.5 90.5001 259.977 90.5001 265.5 90.5001 271.023 86.2468 275.5 81.0001 275.5 75.7533 275.5 71.5001 271.023 71.5001 265.5Z" stroke="#000000" stroke-width="1.33333" stroke-miterlimit="8" fill="#FFFFCF" fill-rule="evenodd"/><path d="M44.5001 265.5C44.5001 259.977 48.9772 255.5 54.5001 255.5 60.0229 255.5 64.5001 259.977 64.5001 265.5 64.5001 271.023 60.0229 275.5 54.5001 275.5 48.9772 275.5 44.5001 271.023 44.5001 265.5Z" stroke="#000000" stroke-width="1.33333" stroke-miterlimit="8" fill="#FFFFCF" fill-rule="evenodd"/><path d="M205.5 297C205.5 291.753 209.753 287.5 215 287.5 220.247 287.5 224.5 291.753 224.5 297 224.5 302.247 220.247 306.5 215 306.5 209.753 306.5 205.5 302.247 205.5 297Z" stroke="#000000" stroke-width="1.33333" stroke-miterlimit="8" fill="#FFFFCF" fill-rule="evenodd"/><path d="M178.5 297C178.5 291.753 182.753 287.5 188 287.5 193.247 287.5 197.5 291.753 197.5 297 197.5 302.247 193.247 306.5 188 306.5 182.753 306.5 178.5 302.247 178.5 297Z" stroke="#000000" stroke-width="1.33333" stroke-miterlimit="8" fill="#FFFFCF" fill-rule="evenodd"/><path d="M151.5 297C151.5 291.753 155.977 287.5 161.5 287.5 167.023 287.5 171.5 291.753 171.5 297 171.5 302.247 167.023 306.5 161.5 306.5 155.977 306.5 151.5 302.247 151.5 297Z" stroke="#000000" stroke-width="1.33333" stroke-miterlimit="8" fill="#FFFFCF" fill-rule="evenodd"/><path d="M125.5 297C125.5 291.753 129.753 287.5 135 287.5 140.247 287.5 144.5 291.753 144.5 297 144.5 302.247 140.247 306.5 135 306.5 129.753 306.5 125.5 302.247 125.5 297Z" stroke="#000000" stroke-width="1.33333" stroke-miterlimit="8" fill="#FFFFCF" fill-rule="evenodd"/><path d="M98.5001 297C98.5001 291.753 102.753 287.5 108 287.5 113.247 287.5 117.5 291.753 117.5 297 117.5 302.247 113.247 306.5 108 306.5 102.753 306.5 98.5001 302.247 98.5001 297Z" stroke="#000000" stroke-width="1.33333" stroke-miterlimit="8" fill="#FFFFCF" fill-rule="evenodd"/><path d="M71.5001 297C71.5001 291.753 75.7533 287.5 81.0001 287.5 86.2468 287.5 90.5001 291.753 90.5001 297 90.5001 302.247 86.2468 306.5 81.0001 306.5 75.7533 306.5 71.5001 302.247 71.5001 297Z" stroke="#000000" stroke-width="1.33333" stroke-miterlimit="8" fill="#FFFFCF" fill-rule="evenodd"/><path d="M44.5001 297C44.5001 291.753 48.7533 287.5 54.0001 287.5 59.2468 287.5 63.5001 291.753 63.5001 297 63.5001 302.247 59.2468 306.5 54.0001 306.5 48.7533 306.5 44.5001 302.247 44.5001 297Z" stroke="#000000" stroke-width="1.33333" stroke-miterlimit="8" fill="#FFFFCF" fill-rule="evenodd"/><path d="M524.5 362C524.5 356.753 528.753 352.5 534 352.5 539.247 352.5 543.5 356.753 543.5 362 543.5 367.247 539.247 371.5 534 371.5 528.753 371.5 524.5 367.247 524.5 362Z" stroke="#000000" stroke-width="1.33333" stroke-miterlimit="8" fill="#FFFFCF" fill-rule="evenodd"/><path d="M588.5 362.5C588.5 356.977 592.753 352.5 598 352.5 603.247 352.5 607.5 356.977 607.5 362.5 607.5 368.023 603.247 372.5 598 372.5 592.753 372.5 588.5 368.023 588.5 362.5Z" stroke="#000000" stroke-width="1.33333" stroke-miterlimit="8" fill="#FFFFCF" fill-rule="evenodd"/><path d="M654.5 362.5C654.5 356.977 658.753 352.5 664 352.5 669.247 352.5 673.5 356.977 673.5 362.5 673.5 368.023 669.247 372.5 664 372.5 658.753 372.5 654.5 368.023 654.5 362.5Z" stroke="#000000" stroke-width="1.33333" stroke-miterlimit="8" fill="#FFFFCF" fill-rule="evenodd"/><path d="M323.5 200.167C323.5 198.694 324.694 197.5 326.167 197.5L336.833 197.5C338.306 197.5 339.5 198.694 339.5 200.167L339.5 210.833C339.5 212.306 338.306 213.5 336.833 213.5L326.167 213.5C324.694 213.5 323.5 212.306 323.5 210.833Z" stroke="#000000" stroke-width="1.33333" stroke-miterlimit="8" fill="#FFFFCF" fill-rule="evenodd"/><path d="M339.5 200.167C339.5 198.694 340.694 197.5 342.167 197.5L353.833 197.5C355.306 197.5 356.5 198.694 356.5 200.167L356.5 210.833C356.5 212.306 355.306 213.5 353.833 213.5L342.167 213.5C340.694 213.5 339.5 212.306 339.5 210.833Z" stroke="#000000" stroke-width="1.33333" stroke-miterlimit="8" fill="#FFFFCF" fill-rule="evenodd"/><path d="M356.5 200.167C356.5 198.694 357.694 197.5 359.167 197.5L369.833 197.5C371.306 197.5 372.5 198.694 372.5 200.167L372.5 210.833C372.5 212.306 371.306 213.5 369.833 213.5L359.167 213.5C357.694 213.5 356.5 212.306 356.5 210.833Z" stroke="#000000" stroke-width="1.33333" stroke-miterlimit="8" fill="#FFFFCF" fill-rule="evenodd"/><path d="M387.5 200.167C387.5 198.694 388.694 197.5 390.167 197.5L400.833 197.5C402.306 197.5 403.5 198.694 403.5 200.167L403.5 210.833C403.5 212.306 402.306 213.5 400.833 213.5L390.167 213.5C388.694 213.5 387.5 212.306 387.5 210.833Z" stroke="#000000" stroke-width="1.33333" stroke-miterlimit="8" fill="#FFFFCF" fill-rule="evenodd"/><path d="M403.5 200.167C403.5 198.694 404.694 197.5 406.167 197.5L416.833 197.5C418.306 197.5 419.5 198.694 419.5 200.167L419.5 210.833C419.5 212.306 418.306 213.5 416.833 213.5L406.167 213.5C404.694 213.5 403.5 212.306 403.5 210.833Z" stroke="#000000" stroke-width="1.33333" stroke-miterlimit="8" fill="#FFFFCF" fill-rule="evenodd"/><path d="M419.5 200.167C419.5 198.694 420.694 197.5 422.167 197.5L432.833 197.5C434.306 197.5 435.5 198.694 435.5 200.167L435.5 210.833C435.5 212.306 434.306 213.5 432.833 213.5L422.167 213.5C420.694 213.5 419.5 212.306 419.5 210.833Z" stroke="#000000" stroke-width="1.33333" stroke-miterlimit="8" fill="#FFFFCF" fill-rule="evenodd"/><path d="M323.5 238.333C323.5 236.769 324.769 235.5 326.333 235.5L337.667 235.5C339.232 235.5 340.5 236.769 340.5 238.333L340.5 249.667C340.5 251.231 339.232 252.5 337.667 252.5L326.333 252.5C324.769 252.5 323.5 251.231 323.5 249.667Z" stroke="#000000" stroke-width="1.33333" stroke-miterlimit="8" fill="#FFFFCF" fill-rule="evenodd"/><path d="M340.5 239.167C340.5 237.694 341.694 236.5 343.167 236.5L353.833 236.5C355.306 236.5 356.5 237.694 356.5 239.167L356.5 249.833C356.5 251.306 355.306 252.5 353.833 252.5L343.167 252.5C341.694 252.5 340.5 251.306 340.5 249.833Z" stroke="#000000" stroke-width="1.33333" stroke-miterlimit="8" fill="#FFFFCF" fill-rule="evenodd"/><path d="M356.5 239.167C356.5 237.694 357.694 236.5 359.167 236.5L369.833 236.5C371.306 236.5 372.5 237.694 372.5 239.167L372.5 249.833C372.5 251.306 371.306 252.5 369.833 252.5L359.167 252.5C357.694 252.5 356.5 251.306 356.5 249.833Z" stroke="#000000" stroke-width="1.33333" stroke-miterlimit="8" fill="#FFFFCF" fill-rule="evenodd"/><path d="M387.5 239.167C387.5 237.694 388.694 236.5 390.167 236.5L400.833 236.5C402.306 236.5 403.5 237.694 403.5 239.167L403.5 249.833C403.5 251.306 402.306 252.5 400.833 252.5L390.167 252.5C388.694 252.5 387.5 251.306 387.5 249.833Z" stroke="#000000" stroke-width="1.33333" stroke-miterlimit="8" fill="#FFFFCF" fill-rule="evenodd"/><path d="M403.5 239.167C403.5 237.694 404.694 236.5 406.167 236.5L416.833 236.5C418.306 236.5 419.5 237.694 419.5 239.167L419.5 249.833C419.5 251.306 418.306 252.5 416.833 252.5L406.167 252.5C404.694 252.5 403.5 251.306 403.5 249.833Z" stroke="#000000" stroke-width="1.33333" stroke-miterlimit="8" fill="#FFFFCF" fill-rule="evenodd"/><path d="M419.5 239.167C419.5 237.694 420.694 236.5 422.167 236.5L432.833 236.5C434.306 236.5 435.5 237.694 435.5 239.167L435.5 249.833C435.5 251.306 434.306 252.5 432.833 252.5L422.167 252.5C420.694 252.5 419.5 251.306 419.5 249.833Z" stroke="#000000" stroke-width="1.33333" stroke-miterlimit="8" fill="#FFFFCF" fill-rule="evenodd"/><path d="M323.5 278.167C323.5 276.694 324.694 275.5 326.167 275.5L336.833 275.5C338.306 275.5 339.5 276.694 339.5 278.167L339.5 289.833C339.5 291.306 338.306 292.5 336.833 292.5L326.167 292.5C324.694 292.5 323.5 291.306 323.5 289.833Z" stroke="#000000" stroke-width="1.33333" stroke-miterlimit="8" fill="#FFFFCF" fill-rule="evenodd"/><path d="M339.5 279.167C339.5 277.694 340.694 276.5 342.167 276.5L352.833 276.5C354.306 276.5 355.5 277.694 355.5 279.167L355.5 289.833C355.5 291.306 354.306 292.5 352.833 292.5L342.167 292.5C340.694 292.5 339.5 291.306 339.5 289.833Z" stroke="#000000" stroke-width="1.33333" stroke-miterlimit="8" fill="#FFFFCF" fill-rule="evenodd"/><path d="M356.5 279.167C356.5 277.694 357.694 276.5 359.167 276.5L369.833 276.5C371.306 276.5 372.5 277.694 372.5 279.167L372.5 289.833C372.5 291.306 371.306 292.5 369.833 292.5L359.167 292.5C357.694 292.5 356.5 291.306 356.5 289.833Z" stroke="#000000" stroke-width="1.33333" stroke-miterlimit="8" fill="#FFFFCF" fill-rule="evenodd"/><path d="M387.5 279.167C387.5 277.694 388.694 276.5 390.167 276.5L400.833 276.5C402.306 276.5 403.5 277.694 403.5 279.167L403.5 289.833C403.5 291.306 402.306 292.5 400.833 292.5L390.167 292.5C388.694 292.5 387.5 291.306 387.5 289.833Z" stroke="#000000" stroke-width="1.33333" stroke-miterlimit="8" fill="#FFFFCF" fill-rule="evenodd"/><path d="M403.5 279.167C403.5 277.694 404.694 276.5 406.167 276.5L416.833 276.5C418.306 276.5 419.5 277.694 419.5 279.167L419.5 289.833C419.5 291.306 418.306 292.5 416.833 292.5L406.167 292.5C404.694 292.5 403.5 291.306 403.5 289.833Z" stroke="#000000" stroke-width="1.33333" stroke-miterlimit="8" fill="#FFFFCF" fill-rule="evenodd"/><path d="M419.5 279.167C419.5 277.694 420.694 276.5 422.167 276.5L432.833 276.5C434.306 276.5 435.5 277.694 435.5 279.167L435.5 289.833C435.5 291.306 434.306 292.5 432.833 292.5L422.167 292.5C420.694 292.5 419.5 291.306 419.5 289.833Z" stroke="#000000" stroke-width="1.33333" stroke-miterlimit="8" fill="#FFFFCF" fill-rule="evenodd"/><path d="M323.5 313.167C323.5 311.694 324.694 310.5 326.167 310.5L336.833 310.5C338.306 310.5 339.5 311.694 339.5 313.167L339.5 324.833C339.5 326.306 338.306 327.5 336.833 327.5L326.167 327.5C324.694 327.5 323.5 326.306 323.5 324.833Z" stroke="#000000" stroke-width="1.33333" stroke-miterlimit="8" fill="#FFFFCF" fill-rule="evenodd"/><path d="M339.5 314.167C339.5 312.694 340.694 311.5 342.167 311.5L352.833 311.5C354.306 311.5 355.5 312.694 355.5 314.167L355.5 324.833C355.5 326.306 354.306 327.5 352.833 327.5L342.167 327.5C340.694 327.5 339.5 326.306 339.5 324.833Z" stroke="#000000" stroke-width="1.33333" stroke-miterlimit="8" fill="#FFFFCF" fill-rule="evenodd"/><path d="M356.5 314.167C356.5 312.694 357.694 311.5 359.167 311.5L369.833 311.5C371.306 311.5 372.5 312.694 372.5 314.167L372.5 324.833C372.5 326.306 371.306 327.5 369.833 327.5L359.167 327.5C357.694 327.5 356.5 326.306 356.5 324.833Z" stroke="#000000" stroke-width="1.33333" stroke-miterlimit="8" fill="#FFFFCF" fill-rule="evenodd"/><path d="M387.5 314.167C387.5 312.694 388.694 311.5 390.167 311.5L400.833 311.5C402.306 311.5 403.5 312.694 403.5 314.167L403.5 324.833C403.5 326.306 402.306 327.5 400.833 327.5L390.167 327.5C388.694 327.5 387.5 326.306 387.5 324.833Z" stroke="#000000" stroke-width="1.33333" stroke-miterlimit="8" fill="#FFFFCF" fill-rule="evenodd"/><path d="M403.5 314.167C403.5 312.694 404.694 311.5 406.167 311.5L416.833 311.5C418.306 311.5 419.5 312.694 419.5 314.167L419.5 324.833C419.5 326.306 418.306 327.5 416.833 327.5L406.167 327.5C404.694 327.5 403.5 326.306 403.5 324.833Z" stroke="#000000" stroke-width="1.33333" stroke-miterlimit="8" fill="#FFFFCF" fill-rule="evenodd"/><path d="M419.5 314.167C419.5 312.694 420.694 311.5 422.167 311.5L432.833 311.5C434.306 311.5 435.5 312.694 435.5 314.167L435.5 324.833C435.5 326.306 434.306 327.5 432.833 327.5L422.167 327.5C420.694 327.5 419.5 326.306 419.5 324.833Z" stroke="#000000" stroke-width="1.33333" stroke-miterlimit="8" fill="#FFFFCF" fill-rule="evenodd"/><path d="M603.5 236.167C603.5 234.694 604.694 233.5 606.167 233.5L616.833 233.5C618.306 233.5 619.5 234.694 619.5 236.167L619.5 246.833C619.5 248.306 618.306 249.5 616.833 249.5L606.167 249.5C604.694 249.5 603.5 248.306 603.5 246.833Z" stroke="#000000" stroke-width="1.33333" stroke-miterlimit="8" fill="#FFFFCF" fill-rule="evenodd"/><path d="M603.5 268.167C603.5 266.694 604.694 265.5 606.167 265.5L616.833 265.5C618.306 265.5 619.5 266.694 619.5 268.167L619.5 278.833C619.5 280.306 618.306 281.5 616.833 281.5L606.167 281.5C604.694 281.5 603.5 280.306 603.5 278.833Z" stroke="#000000" stroke-width="1.33333" stroke-miterlimit="8" fill="#FFFFCF" fill-rule="evenodd"/><path d="M603.5 300.167C603.5 298.694 604.694 297.5 606.167 297.5L616.833 297.5C618.306 297.5 619.5 298.694 619.5 300.167L619.5 310.833C619.5 312.306 618.306 313.5 616.833 313.5L606.167 313.5C604.694 313.5 603.5 312.306 603.5 310.833Z" stroke="#000000" stroke-width="1.33333" stroke-miterlimit="8" fill="#FFFFCF" fill-rule="evenodd"/><path d="M646.5 203.167C646.5 201.694 647.694 200.5 649.167 200.5L659.833 200.5C661.306 200.5 662.5 201.694 662.5 203.167L662.5 213.833C662.5 215.306 661.306 216.5 659.833 216.5L649.167 216.5C647.694 216.5 646.5 215.306 646.5 213.833Z" stroke="#000000" stroke-width="1.33333" stroke-miterlimit="8" fill="#FFFFCF" fill-rule="evenodd"/><path d="M662.5 203.167C662.5 201.694 663.694 200.5 665.167 200.5L676.833 200.5C678.306 200.5 679.5 201.694 679.5 203.167L679.5 213.833C679.5 215.306 678.306 216.5 676.833 216.5L665.167 216.5C663.694 216.5 662.5 215.306 662.5 213.833Z" stroke="#000000" stroke-width="1.33333" stroke-miterlimit="8" fill="#FFFFCF" fill-rule="evenodd"/><path d="M713.5 203.167C713.5 201.694 714.694 200.5 716.167 200.5L726.833 200.5C728.306 200.5 729.5 201.694 729.5 203.167L729.5 213.833C729.5 215.306 728.306 216.5 726.833 216.5L716.167 216.5C714.694 216.5 713.5 215.306 713.5 213.833Z" stroke="#000000" stroke-width="1.33333" stroke-miterlimit="8" fill="#FFFFCF" fill-rule="evenodd"/><path d="M729.5 203.167C729.5 201.694 730.694 200.5 732.167 200.5L742.833 200.5C744.306 200.5 745.5 201.694 745.5 203.167L745.5 213.833C745.5 215.306 744.306 216.5 742.833 216.5L732.167 216.5C730.694 216.5 729.5 215.306 729.5 213.833Z" stroke="#000000" stroke-width="1.33333" stroke-miterlimit="8" fill="#FFFFCF" fill-rule="evenodd"/><path d="M778.5 203.167C778.5 201.694 779.694 200.5 781.167 200.5L791.833 200.5C793.306 200.5 794.5 201.694 794.5 203.167L794.5 213.833C794.5 215.306 793.306 216.5 791.833 216.5L781.167 216.5C779.694 216.5 778.5 215.306 778.5 213.833Z" stroke="#000000" stroke-width="1.33333" stroke-miterlimit="8" fill="#FFFFCF" fill-rule="evenodd"/><path d="M794.5 203.167C794.5 201.694 795.694 200.5 797.167 200.5L807.833 200.5C809.306 200.5 810.5 201.694 810.5 203.167L810.5 213.833C810.5 215.306 809.306 216.5 807.833 216.5L797.167 216.5C795.694 216.5 794.5 215.306 794.5 213.833Z" stroke="#000000" stroke-width="1.33333" stroke-miterlimit="8" fill="#FFFFCF" fill-rule="evenodd"/><path d="M646.5 236.167C646.5 234.694 647.694 233.5 649.167 233.5L659.833 233.5C661.306 233.5 662.5 234.694 662.5 236.167L662.5 246.833C662.5 248.306 661.306 249.5 659.833 249.5L649.167 249.5C647.694 249.5 646.5 248.306 646.5 246.833Z" stroke="#000000" stroke-width="1.33333" stroke-miterlimit="8" fill="#FFFFCF" fill-rule="evenodd"/><path d="M662.5 236.167C662.5 234.694 663.694 233.5 665.167 233.5L676.833 233.5C678.306 233.5 679.5 234.694 679.5 236.167L679.5 246.833C679.5 248.306 678.306 249.5 676.833 249.5L665.167 249.5C663.694 249.5 662.5 248.306 662.5 246.833Z" stroke="#000000" stroke-width="1.33333" stroke-miterlimit="8" fill="#FFFFCF" fill-rule="evenodd"/><path d="M713.5 236.167C713.5 234.694 714.694 233.5 716.167 233.5L726.833 233.5C728.306 233.5 729.5 234.694 729.5 236.167L729.5 246.833C729.5 248.306 728.306 249.5 726.833 249.5L716.167 249.5C714.694 249.5 713.5 248.306 713.5 246.833Z" stroke="#000000" stroke-width="1.33333" stroke-miterlimit="8" fill="#FFFFCF" fill-rule="evenodd"/><path d="M729.5 236.167C729.5 234.694 730.694 233.5 732.167 233.5L742.833 233.5C744.306 233.5 745.5 234.694 745.5 236.167L745.5 246.833C745.5 248.306 744.306 249.5 742.833 249.5L732.167 249.5C730.694 249.5 729.5 248.306 729.5 246.833Z" stroke="#000000" stroke-width="1.33333" stroke-miterlimit="8" fill="#FFFFCF" fill-rule="evenodd"/><path d="M778.5 236.167C778.5 234.694 779.694 233.5 781.167 233.5L791.833 233.5C793.306 233.5 794.5 234.694 794.5 236.167L794.5 246.833C794.5 248.306 793.306 249.5 791.833 249.5L781.167 249.5C779.694 249.5 778.5 248.306 778.5 246.833Z" stroke="#000000" stroke-width="1.33333" stroke-miterlimit="8" fill="#FFFFCF" fill-rule="evenodd"/><path d="M794.5 236.167C794.5 234.694 795.694 233.5 797.167 233.5L807.833 233.5C809.306 233.5 810.5 234.694 810.5 236.167L810.5 246.833C810.5 248.306 809.306 249.5 807.833 249.5L797.167 249.5C795.694 249.5 794.5 248.306 794.5 246.833Z" stroke="#000000" stroke-width="1.33333" stroke-miterlimit="8" fill="#FFFFCF" fill-rule="evenodd"/><path d="M646.5 267.167C646.5 265.694 647.694 264.5 649.167 264.5L659.833 264.5C661.306 264.5 662.5 265.694 662.5 267.167L662.5 277.833C662.5 279.306 661.306 280.5 659.833 280.5L649.167 280.5C647.694 280.5 646.5 279.306 646.5 277.833Z" stroke="#000000" stroke-width="1.33333" stroke-miterlimit="8" fill="#FFFFCF" fill-rule="evenodd"/><path d="M662.5 267.167C662.5 265.694 663.694 264.5 665.167 264.5L676.833 264.5C678.306 264.5 679.5 265.694 679.5 267.167L679.5 277.833C679.5 279.306 678.306 280.5 676.833 280.5L665.167 280.5C663.694 280.5 662.5 279.306 662.5 277.833Z" stroke="#000000" stroke-width="1.33333" stroke-miterlimit="8" fill="#FFFFCF" fill-rule="evenodd"/><path d="M778.5 267.167C778.5 265.694 779.694 264.5 781.167 264.5L791.833 264.5C793.306 264.5 794.5 265.694 794.5 267.167L794.5 277.833C794.5 279.306 793.306 280.5 791.833 280.5L781.167 280.5C779.694 280.5 778.5 279.306 778.5 277.833Z" stroke="#000000" stroke-width="1.33333" stroke-miterlimit="8" fill="#FFFFCF" fill-rule="evenodd"/><path d="M794.5 267.167C794.5 265.694 795.694 264.5 797.167 264.5L807.833 264.5C809.306 264.5 810.5 265.694 810.5 267.167L810.5 277.833C810.5 279.306 809.306 280.5 807.833 280.5L797.167 280.5C795.694 280.5 794.5 279.306 794.5 277.833Z" stroke="#000000" stroke-width="1.33333" stroke-miterlimit="8" fill="#FFFFCF" fill-rule="evenodd"/><path d="M646.5 300.167C646.5 298.694 647.694 297.5 649.167 297.5L659.833 297.5C661.306 297.5 662.5 298.694 662.5 300.167L662.5 310.833C662.5 312.306 661.306 313.5 659.833 313.5L649.167 313.5C647.694 313.5 646.5 312.306 646.5 310.833Z" stroke="#000000" stroke-width="1.33333" stroke-miterlimit="8" fill="#FFFFCF" fill-rule="evenodd"/><path d="M662.5 300.167C662.5 298.694 663.694 297.5 665.167 297.5L676.833 297.5C678.306 297.5 679.5 298.694 679.5 300.167L679.5 310.833C679.5 312.306 678.306 313.5 676.833 313.5L665.167 313.5C663.694 313.5 662.5 312.306 662.5 310.833Z" stroke="#000000" stroke-width="1.33333" stroke-miterlimit="8" fill="#FFFFCF" fill-rule="evenodd"/><path d="M713.5 300.167C713.5 298.694 714.694 297.5 716.167 297.5L726.833 297.5C728.306 297.5 729.5 298.694 729.5 300.167L729.5 310.833C729.5 312.306 728.306 313.5 726.833 313.5L716.167 313.5C714.694 313.5 713.5 312.306 713.5 310.833Z" stroke="#000000" stroke-width="1.33333" stroke-miterlimit="8" fill="#FFFFCF" fill-rule="evenodd"/><path d="M729.5 300.167C729.5 298.694 730.694 297.5 732.167 297.5L742.833 297.5C744.306 297.5 745.5 298.694 745.5 300.167L745.5 310.833C745.5 312.306 744.306 313.5 742.833 313.5L732.167 313.5C730.694 313.5 729.5 312.306 729.5 310.833Z" stroke="#000000" stroke-width="1.33333" stroke-miterlimit="8" fill="#FFFFCF" fill-rule="evenodd"/><path d="M778.5 300.167C778.5 298.694 779.694 297.5 781.167 297.5L791.833 297.5C793.306 297.5 794.5 298.694 794.5 300.167L794.5 310.833C794.5 312.306 793.306 313.5 791.833 313.5L781.167 313.5C779.694 313.5 778.5 312.306 778.5 310.833Z" stroke="#000000" stroke-width="1.33333" stroke-miterlimit="8" fill="#FFFFCF" fill-rule="evenodd"/><path d="M794.5 300.167C794.5 298.694 795.694 297.5 797.167 297.5L807.833 297.5C809.306 297.5 810.5 298.694 810.5 300.167L810.5 310.833C810.5 312.306 809.306 313.5 807.833 313.5L797.167 313.5C795.694 313.5 794.5 312.306 794.5 310.833Z" stroke="#000000" stroke-width="1.33333" stroke-miterlimit="8" fill="#FFFFCF" fill-rule="evenodd"/><path d="M861.5 216.167C861.5 214.694 862.694 213.5 864.167 213.5L874.833 213.5C876.306 213.5 877.5 214.694 877.5 216.167L877.5 226.833C877.5 228.306 876.306 229.5 874.833 229.5L864.167 229.5C862.694 229.5 861.5 228.306 861.5 226.833Z" stroke="#000000" stroke-width="1.33333" stroke-miterlimit="8" fill="#FFFFCF" fill-rule="evenodd"/><path d="M861.5 200.167C861.5 198.694 862.694 197.5 864.167 197.5L874.833 197.5C876.306 197.5 877.5 198.694 877.5 200.167L877.5 210.833C877.5 212.306 876.306 213.5 874.833 213.5L864.167 213.5C862.694 213.5 861.5 212.306 861.5 210.833Z" stroke="#000000" stroke-width="1.33333" stroke-miterlimit="8" fill="#FFFFCF" fill-rule="evenodd"/><path d="M861.5 257.167C861.5 255.694 862.694 254.5 864.167 254.5L874.833 254.5C876.306 254.5 877.5 255.694 877.5 257.167L877.5 267.833C877.5 269.306 876.306 270.5 874.833 270.5L864.167 270.5C862.694 270.5 861.5 269.306 861.5 267.833Z" stroke="#000000" stroke-width="1.33333" stroke-miterlimit="8" fill="#FFFFCF" fill-rule="evenodd"/><path d="M861.5 241.167C861.5 239.694 862.694 238.5 864.167 238.5L874.833 238.5C876.306 238.5 877.5 239.694 877.5 241.167L877.5 251.833C877.5 253.306 876.306 254.5 874.833 254.5L864.167 254.5C862.694 254.5 861.5 253.306 861.5 251.833Z" stroke="#000000" stroke-width="1.33333" stroke-miterlimit="8" fill="#FFFFCF" fill-rule="evenodd"/><path d="M862.5 298.167C862.5 296.694 863.694 295.5 865.167 295.5L875.833 295.5C877.306 295.5 878.5 296.694 878.5 298.167L878.5 308.833C878.5 310.306 877.306 311.5 875.833 311.5L865.167 311.5C863.694 311.5 862.5 310.306 862.5 308.833Z" stroke="#000000" stroke-width="1.33333" stroke-miterlimit="8" fill="#FFFFCF" fill-rule="evenodd"/><path d="M862.5 282.167C862.5 280.694 863.694 279.5 865.167 279.5L875.833 279.5C877.306 279.5 878.5 280.694 878.5 282.167L878.5 292.833C878.5 294.306 877.306 295.5 875.833 295.5L865.167 295.5C863.694 295.5 862.5 294.306 862.5 292.833Z" stroke="#000000" stroke-width="1.33333" stroke-miterlimit="8" fill="#FFFFCF" fill-rule="evenodd"/><path d="M1217.5 358.167C1217.5 356.694 1218.69 355.5 1220.17 355.5L1230.83 355.5C1232.31 355.5 1233.5 356.694 1233.5 358.167L1233.5 368.833C1233.5 370.306 1232.31 371.5 1230.83 371.5L1220.17 371.5C1218.69 371.5 1217.5 370.306 1217.5 368.833Z" stroke="#000000" stroke-width="1.33333" stroke-miterlimit="8" fill="#FFFFCF" fill-rule="evenodd"/><path d="M1217.5 342.167C1217.5 340.694 1218.69 339.5 1220.17 339.5L1230.83 339.5C1232.31 339.5 1233.5 340.694 1233.5 342.167L1233.5 352.833C1233.5 354.306 1232.31 355.5 1230.83 355.5L1220.17 355.5C1218.69 355.5 1217.5 354.306 1217.5 352.833Z" stroke="#000000" stroke-width="1.33333" stroke-miterlimit="8" fill="#FFFFCF" fill-rule="evenodd"/><path d="M1217.5 399.167C1217.5 397.694 1218.69 396.5 1220.17 396.5L1230.83 396.5C1232.31 396.5 1233.5 397.694 1233.5 399.167L1233.5 409.833C1233.5 411.306 1232.31 412.5 1230.83 412.5L1220.17 412.5C1218.69 412.5 1217.5 411.306 1217.5 409.833Z" stroke="#000000" stroke-width="1.33333" stroke-miterlimit="8" fill="#FFFFCF" fill-rule="evenodd"/><path d="M1217.5 383.167C1217.5 381.694 1218.69 380.5 1220.17 380.5L1230.83 380.5C1232.31 380.5 1233.5 381.694 1233.5 383.167L1233.5 393.833C1233.5 395.306 1232.31 396.5 1230.83 396.5L1220.17 396.5C1218.69 396.5 1217.5 395.306 1217.5 393.833Z" stroke="#000000" stroke-width="1.33333" stroke-miterlimit="8" fill="#FFFFCF" fill-rule="evenodd"/><path d="M1217.5 440.167C1217.5 438.694 1218.69 437.5 1220.17 437.5L1230.83 437.5C1232.31 437.5 1233.5 438.694 1233.5 440.167L1233.5 450.833C1233.5 452.306 1232.31 453.5 1230.83 453.5L1220.17 453.5C1218.69 453.5 1217.5 452.306 1217.5 450.833Z" stroke="#000000" stroke-width="1.33333" stroke-miterlimit="8" fill="#FFFFCF" fill-rule="evenodd"/><path d="M1217.5 424.167C1217.5 422.694 1218.69 421.5 1220.17 421.5L1230.83 421.5C1232.31 421.5 1233.5 422.694 1233.5 424.167L1233.5 434.833C1233.5 436.306 1232.31 437.5 1230.83 437.5L1220.17 437.5C1218.69 437.5 1217.5 436.306 1217.5 434.833Z" stroke="#000000" stroke-width="1.33333" stroke-miterlimit="8" fill="#FFFFCF" fill-rule="evenodd"/><path d="M1218.5 482.167C1218.5 480.694 1219.69 479.5 1221.17 479.5L1231.83 479.5C1233.31 479.5 1234.5 480.694 1234.5 482.167L1234.5 492.833C1234.5 494.306 1233.31 495.5 1231.83 495.5L1221.17 495.5C1219.69 495.5 1218.5 494.306 1218.5 492.833Z" stroke="#000000" stroke-width="1.33333" stroke-miterlimit="8" fill="#FFFFCF" fill-rule="evenodd"/><path d="M1218.5 466.167C1218.5 464.694 1219.69 463.5 1221.17 463.5L1231.83 463.5C1233.31 463.5 1234.5 464.694 1234.5 466.167L1234.5 476.833C1234.5 478.306 1233.31 479.5 1231.83 479.5L1221.17 479.5C1219.69 479.5 1218.5 478.306 1218.5 476.833Z" stroke="#000000" stroke-width="1.33333" stroke-miterlimit="8" fill="#FFFFCF" fill-rule="evenodd"/><path d="M1218.5 524.167C1218.5 522.694 1219.69 521.5 1221.17 521.5L1231.83 521.5C1233.31 521.5 1234.5 522.694 1234.5 524.167L1234.5 534.833C1234.5 536.306 1233.31 537.5 1231.83 537.5L1221.17 537.5C1219.69 537.5 1218.5 536.306 1218.5 534.833Z" stroke="#000000" stroke-width="1.33333" stroke-miterlimit="8" fill="#FFFFCF" fill-rule="evenodd"/><path d="M1218.5 508.167C1218.5 506.694 1219.69 505.5 1221.17 505.5L1231.83 505.5C1233.31 505.5 1234.5 506.694 1234.5 508.167L1234.5 518.833C1234.5 520.306 1233.31 521.5 1231.83 521.5L1221.17 521.5C1219.69 521.5 1218.5 520.306 1218.5 518.833Z" stroke="#000000" stroke-width="1.33333" stroke-miterlimit="8" fill="#FFFFCF" fill-rule="evenodd"/><path d="M1045.5 528.167C1045.5 526.694 1046.69 525.5 1048.17 525.5L1058.83 525.5C1060.31 525.5 1061.5 526.694 1061.5 528.167L1061.5 539.833C1061.5 541.306 1060.31 542.5 1058.83 542.5L1048.17 542.5C1046.69 542.5 1045.5 541.306 1045.5 539.833Z" stroke="#000000" stroke-width="1.33333" stroke-miterlimit="8" fill="#FFFFCF" fill-rule="evenodd"/><path d="M1061.5 529.167C1061.5 527.694 1062.69 526.5 1064.17 526.5L1075.83 526.5C1077.31 526.5 1078.5 527.694 1078.5 529.167L1078.5 539.833C1078.5 541.306 1077.31 542.5 1075.83 542.5L1064.17 542.5C1062.69 542.5 1061.5 541.306 1061.5 539.833Z" stroke="#000000" stroke-width="1.33333" stroke-miterlimit="8" fill="#FFFFCF" fill-rule="evenodd"/><path d="M1130.5 528.167C1130.5 526.694 1131.69 525.5 1133.17 525.5L1143.83 525.5C1145.31 525.5 1146.5 526.694 1146.5 528.167L1146.5 538.833C1146.5 540.306 1145.31 541.5 1143.83 541.5L1133.17 541.5C1131.69 541.5 1130.5 540.306 1130.5 538.833Z" stroke="#000000" stroke-width="1.33333" stroke-miterlimit="8" fill="#FFFFCF" fill-rule="evenodd"/><path d="M1146.5 528.167C1146.5 526.694 1147.69 525.5 1149.17 525.5L1160.83 525.5C1162.31 525.5 1163.5 526.694 1163.5 528.167L1163.5 538.833C1163.5 540.306 1162.31 541.5 1160.83 541.5L1149.17 541.5C1147.69 541.5 1146.5 540.306 1146.5 538.833Z" stroke="#000000" stroke-width="1.33333" stroke-miterlimit="8" fill="#FFFFCF" fill-rule="evenodd"/><path d="M1163.5 528.167C1163.5 526.694 1164.69 525.5 1166.17 525.5L1176.83 525.5C1178.31 525.5 1179.5 526.694 1179.5 528.167L1179.5 538.833C1179.5 540.306 1178.31 541.5 1176.83 541.5L1166.17 541.5C1164.69 541.5 1163.5 540.306 1163.5 538.833Z" stroke="#000000" stroke-width="1.33333" stroke-miterlimit="8" fill="#FFFFCF" fill-rule="evenodd"/><path d="M988.5 430.167C988.5 428.694 989.694 427.5 991.167 427.5L1002.83 427.5C1004.31 427.5 1005.5 428.694 1005.5 430.167L1005.5 440.833C1005.5 442.306 1004.31 443.5 1002.83 443.5L991.167 443.5C989.694 443.5 988.5 442.306 988.5 440.833Z" stroke="#000000" stroke-width="1.33333" stroke-miterlimit="8" fill="#FFFFCF" fill-rule="evenodd"/><path d="M988.5 414.167C988.5 412.694 989.694 411.5 991.167 411.5L1002.83 411.5C1004.31 411.5 1005.5 412.694 1005.5 414.167L1005.5 424.833C1005.5 426.306 1004.31 427.5 1002.83 427.5L991.167 427.5C989.694 427.5 988.5 426.306 988.5 424.833Z" stroke="#000000" stroke-width="1.33333" stroke-miterlimit="8" fill="#FFFFCF" fill-rule="evenodd"/><path d="M989.5 472.167C989.5 470.694 990.694 469.5 992.167 469.5L1002.83 469.5C1004.31 469.5 1005.5 470.694 1005.5 472.167L1005.5 482.833C1005.5 484.306 1004.31 485.5 1002.83 485.5L992.167 485.5C990.694 485.5 989.5 484.306 989.5 482.833Z" stroke="#000000" stroke-width="1.33333" stroke-miterlimit="8" fill="#FFFFCF" fill-rule="evenodd"/><path d="M989.5 456.167C989.5 454.694 990.694 453.5 992.167 453.5L1002.83 453.5C1004.31 453.5 1005.5 454.694 1005.5 456.167L1005.5 466.833C1005.5 468.306 1004.31 469.5 1002.83 469.5L992.167 469.5C990.694 469.5 989.5 468.306 989.5 466.833Z" stroke="#000000" stroke-width="1.33333" stroke-miterlimit="8" fill="#FFFFCF" fill-rule="evenodd"/><path d="M989.5 514.167C989.5 512.694 990.694 511.5 992.167 511.5L1003.83 511.5C1005.31 511.5 1006.5 512.694 1006.5 514.167L1006.5 524.833C1006.5 526.306 1005.31 527.5 1003.83 527.5L992.167 527.5C990.694 527.5 989.5 526.306 989.5 524.833Z" stroke="#000000" stroke-width="1.33333" stroke-miterlimit="8" fill="#FFFFCF" fill-rule="evenodd"/><path d="M989.5 497.333C989.5 495.769 990.769 494.5 992.333 494.5L1003.67 494.5C1005.23 494.5 1006.5 495.769 1006.5 497.333L1006.5 508.667C1006.5 510.232 1005.23 511.5 1003.67 511.5L992.333 511.5C990.769 511.5 989.5 510.232 989.5 508.667Z" stroke="#000000" stroke-width="1.33333" stroke-miterlimit="8" fill="#FFFFCF" fill-rule="evenodd"/><path d="M1173.5 483.167C1173.5 481.694 1174.69 480.5 1176.17 480.5L1186.83 480.5C1188.31 480.5 1189.5 481.694 1189.5 483.167L1189.5 493.833C1189.5 495.306 1188.31 496.5 1186.83 496.5L1176.17 496.5C1174.69 496.5 1173.5 495.306 1173.5 493.833Z" stroke="#000000" stroke-width="1.33333" stroke-miterlimit="8" fill="#FFFFCF" fill-rule="evenodd"/><path d="M1173.5 466.167C1173.5 464.694 1174.69 463.5 1176.17 463.5L1186.83 463.5C1188.31 463.5 1189.5 464.694 1189.5 466.167L1189.5 477.833C1189.5 479.306 1188.31 480.5 1186.83 480.5L1176.17 480.5C1174.69 480.5 1173.5 479.306 1173.5 477.833Z" stroke="#000000" stroke-width="1.33333" stroke-miterlimit="8" fill="#FFFFCF" fill-rule="evenodd"/><path d="M1123.5 483.167C1123.5 481.694 1124.69 480.5 1126.17 480.5L1136.83 480.5C1138.31 480.5 1139.5 481.694 1139.5 483.167L1139.5 493.833C1139.5 495.306 1138.31 496.5 1136.83 496.5L1126.17 496.5C1124.69 496.5 1123.5 495.306 1123.5 493.833Z" stroke="#000000" stroke-width="1.33333" stroke-miterlimit="8" fill="#FFFFCF" fill-rule="evenodd"/><path d="M1123.5 467.167C1123.5 465.694 1124.69 464.5 1126.17 464.5L1136.83 464.5C1138.31 464.5 1139.5 465.694 1139.5 467.167L1139.5 477.833C1139.5 479.306 1138.31 480.5 1136.83 480.5L1126.17 480.5C1124.69 480.5 1123.5 479.306 1123.5 477.833Z" stroke="#000000" stroke-width="1.33333" stroke-miterlimit="8" fill="#FFFFCF" fill-rule="evenodd"/><path d="M251.833 340.5C253.306 340.5 254.5 341.694 254.5 343.167L254.5 353.833C254.5 355.306 253.306 356.5 251.833 356.5L241.167 356.5C239.694 356.5 238.5 355.306 238.5 353.833L238.5 343.167C238.5 341.694 239.694 340.5 241.167 340.5Z" stroke="#000000" stroke-width="1.33333" stroke-miterlimit="8" fill="#FFFFCF" fill-rule="evenodd"/><path d="M238.5 375.167C238.5 373.694 239.694 372.5 241.167 372.5L251.833 372.5C253.306 372.5 254.5 373.694 254.5 375.167L254.5 386.833C254.5 388.306 253.306 389.5 251.833 389.5L241.167 389.5C239.694 389.5 238.5 388.306 238.5 386.833Z" stroke="#000000" stroke-width="1.33333" stroke-miterlimit="8" fill="#FFFFCF" fill-rule="evenodd"/><path d="M238.5 359.167C238.5 357.694 239.694 356.5 241.167 356.5L251.833 356.5C253.306 356.5 254.5 357.694 254.5 359.167L254.5 369.833C254.5 371.306 253.306 372.5 251.833 372.5L241.167 372.5C239.694 372.5 238.5 371.306 238.5 369.833Z" stroke="#000000" stroke-width="1.33333" stroke-miterlimit="8" fill="#FFFFCF" fill-rule="evenodd"/><path d="M300.833 340.5C302.306 340.5 303.5 341.694 303.5 343.167L303.5 353.833C303.5 355.306 302.306 356.5 300.833 356.5L290.167 356.5C288.694 356.5 287.5 355.306 287.5 353.833L287.5 343.167C287.5 341.694 288.694 340.5 290.167 340.5Z" stroke="#000000" stroke-width="1.33333" stroke-miterlimit="8" fill="#FFFFCF" fill-rule="evenodd"/><path d="M287.5 375.167C287.5 373.694 288.694 372.5 290.167 372.5L300.833 372.5C302.306 372.5 303.5 373.694 303.5 375.167L303.5 386.833C303.5 388.306 302.306 389.5 300.833 389.5L290.167 389.5C288.694 389.5 287.5 388.306 287.5 386.833Z" stroke="#000000" stroke-width="1.33333" stroke-miterlimit="8" fill="#FFFFCF" fill-rule="evenodd"/><path d="M287.5 359.167C287.5 357.694 288.694 356.5 290.167 356.5L300.833 356.5C302.306 356.5 303.5 357.694 303.5 359.167L303.5 369.833C303.5 371.306 302.306 372.5 300.833 372.5L290.167 372.5C288.694 372.5 287.5 371.306 287.5 369.833Z" stroke="#000000" stroke-width="1.33333" stroke-miterlimit="8" fill="#FFFFCF" fill-rule="evenodd"/><path d="M348.833 339.5C350.306 339.5 351.5 340.694 351.5 342.167L351.5 352.833C351.5 354.306 350.306 355.5 348.833 355.5L337.167 355.5C335.694 355.5 334.5 354.306 334.5 352.833L334.5 342.167C334.5 340.694 335.694 339.5 337.167 339.5Z" stroke="#000000" stroke-width="1.33333" stroke-miterlimit="8" fill="#FFFFCF" fill-rule="evenodd"/><path d="M334.5 374.333C334.5 372.769 335.769 371.5 337.333 371.5L348.667 371.5C350.232 371.5 351.5 372.769 351.5 374.333L351.5 385.667C351.5 387.232 350.232 388.5 348.667 388.5L337.333 388.5C335.769 388.5 334.5 387.232 334.5 385.667Z" stroke="#000000" stroke-width="1.33333" stroke-miterlimit="8" fill="#FFFFCF" fill-rule="evenodd"/><path d="M334.5 358.167C334.5 356.694 335.694 355.5 337.167 355.5L348.833 355.5C350.306 355.5 351.5 356.694 351.5 358.167L351.5 368.833C351.5 370.306 350.306 371.5 348.833 371.5L337.167 371.5C335.694 371.5 334.5 370.306 334.5 368.833Z" stroke="#000000" stroke-width="1.33333" stroke-miterlimit="8" fill="#FFFFCF" fill-rule="evenodd"/><path d="M396.833 339.5C398.306 339.5 399.5 340.694 399.5 342.167L399.5 352.833C399.5 354.306 398.306 355.5 396.833 355.5L386.167 355.5C384.694 355.5 383.5 354.306 383.5 352.833L383.5 342.167C383.5 340.694 384.694 339.5 386.167 339.5Z" stroke="#000000" stroke-width="1.33333" stroke-miterlimit="8" fill="#FFFFCF" fill-rule="evenodd"/><path d="M383.5 374.167C383.5 372.694 384.694 371.5 386.167 371.5L396.833 371.5C398.306 371.5 399.5 372.694 399.5 374.167L399.5 385.833C399.5 387.306 398.306 388.5 396.833 388.5L386.167 388.5C384.694 388.5 383.5 387.306 383.5 385.833Z" stroke="#000000" stroke-width="1.33333" stroke-miterlimit="8" fill="#FFFFCF" fill-rule="evenodd"/><path d="M383.5 358.167C383.5 356.694 384.694 355.5 386.167 355.5L396.833 355.5C398.306 355.5 399.5 356.694 399.5 358.167L399.5 368.833C399.5 370.306 398.306 371.5 396.833 371.5L386.167 371.5C384.694 371.5 383.5 370.306 383.5 368.833Z" stroke="#000000" stroke-width="1.33333" stroke-miterlimit="8" fill="#FFFFCF" fill-rule="evenodd"/><path d="M442.833 339.5C444.306 339.5 445.5 340.694 445.5 342.167L445.5 352.833C445.5 354.306 444.306 355.5 442.833 355.5L432.167 355.5C430.694 355.5 429.5 354.306 429.5 352.833L429.5 342.167C429.5 340.694 430.694 339.5 432.167 339.5Z" stroke="#000000" stroke-width="1.33333" stroke-miterlimit="8" fill="#FFFFCF" fill-rule="evenodd"/><path d="M429.5 374.167C429.5 372.694 430.694 371.5 432.167 371.5L442.833 371.5C444.306 371.5 445.5 372.694 445.5 374.167L445.5 384.833C445.5 386.306 444.306 387.5 442.833 387.5L432.167 387.5C430.694 387.5 429.5 386.306 429.5 384.833Z" stroke="#000000" stroke-width="1.33333" stroke-miterlimit="8" fill="#FFFFCF" fill-rule="evenodd"/><path d="M429.5 358.167C429.5 356.694 430.694 355.5 432.167 355.5L442.833 355.5C444.306 355.5 445.5 356.694 445.5 358.167L445.5 368.833C445.5 370.306 444.306 371.5 442.833 371.5L432.167 371.5C430.694 371.5 429.5 370.306 429.5 368.833Z" stroke="#000000" stroke-width="1.33333" stroke-miterlimit="8" fill="#FFFFCF" fill-rule="evenodd"/><path d="M737.833 338.5C739.306 338.5 740.5 339.694 740.5 341.167L740.5 351.833C740.5 353.306 739.306 354.5 737.833 354.5L727.167 354.5C725.694 354.5 724.5 353.306 724.5 351.833L724.5 341.167C724.5 339.694 725.694 338.5 727.167 338.5Z" stroke="#000000" stroke-width="1.33333" stroke-miterlimit="8" fill="#FFFFCF" fill-rule="evenodd"/><path d="M724.5 373.167C724.5 371.694 725.694 370.5 727.167 370.5L737.833 370.5C739.306 370.5 740.5 371.694 740.5 373.167L740.5 383.833C740.5 385.306 739.306 386.5 737.833 386.5L727.167 386.5C725.694 386.5 724.5 385.306 724.5 383.833Z" stroke="#000000" stroke-width="1.33333" stroke-miterlimit="8" fill="#FFFFCF" fill-rule="evenodd"/><path d="M724.5 357.167C724.5 355.694 725.694 354.5 727.167 354.5L737.833 354.5C739.306 354.5 740.5 355.694 740.5 357.167L740.5 367.833C740.5 369.306 739.306 370.5 737.833 370.5L727.167 370.5C725.694 370.5 724.5 369.306 724.5 367.833Z" stroke="#000000" stroke-width="1.33333" stroke-miterlimit="8" fill="#FFFFCF" fill-rule="evenodd"/><path d="M804.833 338.5C806.306 338.5 807.5 339.694 807.5 341.167L807.5 351.833C807.5 353.306 806.306 354.5 804.833 354.5L794.167 354.5C792.694 354.5 791.5 353.306 791.5 351.833L791.5 341.167C791.5 339.694 792.694 338.5 794.167 338.5Z" stroke="#000000" stroke-width="1.33333" stroke-miterlimit="8" fill="#FFFFCF" fill-rule="evenodd"/><path d="M791.5 373.167C791.5 371.694 792.694 370.5 794.167 370.5L804.833 370.5C806.306 370.5 807.5 371.694 807.5 373.167L807.5 383.833C807.5 385.306 806.306 386.5 804.833 386.5L794.167 386.5C792.694 386.5 791.5 385.306 791.5 383.833Z" stroke="#000000" stroke-width="1.33333" stroke-miterlimit="8" fill="#FFFFCF" fill-rule="evenodd"/><path d="M791.5 357.167C791.5 355.694 792.694 354.5 794.167 354.5L804.833 354.5C806.306 354.5 807.5 355.694 807.5 357.167L807.5 367.833C807.5 369.306 806.306 370.5 804.833 370.5L794.167 370.5C792.694 370.5 791.5 369.306 791.5 367.833Z" stroke="#000000" stroke-width="1.33333" stroke-miterlimit="8" fill="#FFFFCF" fill-rule="evenodd"/><path d="M869.833 338.5C871.306 338.5 872.5 339.694 872.5 341.167L872.5 351.833C872.5 353.306 871.306 354.5 869.833 354.5L859.167 354.5C857.694 354.5 856.5 353.306 856.5 351.833L856.5 341.167C856.5 339.694 857.694 338.5 859.167 338.5Z" stroke="#000000" stroke-width="1.33333" stroke-miterlimit="8" fill="#FFFFCF" fill-rule="evenodd"/><path d="M856.5 373.167C856.5 371.694 857.694 370.5 859.167 370.5L869.833 370.5C871.306 370.5 872.5 371.694 872.5 373.167L872.5 383.833C872.5 385.306 871.306 386.5 869.833 386.5L859.167 386.5C857.694 386.5 856.5 385.306 856.5 383.833Z" stroke="#000000" stroke-width="1.33333" stroke-miterlimit="8" fill="#FFFFCF" fill-rule="evenodd"/><path d="M856.5 357.167C856.5 355.694 857.694 354.5 859.167 354.5L869.833 354.5C871.306 354.5 872.5 355.694 872.5 357.167L872.5 367.833C872.5 369.306 871.306 370.5 869.833 370.5L859.167 370.5C857.694 370.5 856.5 369.306 856.5 367.833Z" stroke="#000000" stroke-width="1.33333" stroke-miterlimit="8" fill="#FFFFCF" fill-rule="evenodd"/><path d="M936.833 338.5C938.306 338.5 939.5 339.694 939.5 341.167L939.5 351.833C939.5 353.306 938.306 354.5 936.833 354.5L926.167 354.5C924.694 354.5 923.5 353.306 923.5 351.833L923.5 341.167C923.5 339.694 924.694 338.5 926.167 338.5Z" stroke="#000000" stroke-width="1.33333" stroke-miterlimit="8" fill="#FFFFCF" fill-rule="evenodd"/><path d="M923.5 373.167C923.5 371.694 924.694 370.5 926.167 370.5L936.833 370.5C938.306 370.5 939.5 371.694 939.5 373.167L939.5 383.833C939.5 385.306 938.306 386.5 936.833 386.5L926.167 386.5C924.694 386.5 923.5 385.306 923.5 383.833Z" stroke="#000000" stroke-width="1.33333" stroke-miterlimit="8" fill="#FFFFCF" fill-rule="evenodd"/><path d="M923.5 357.167C923.5 355.694 924.694 354.5 926.167 354.5L936.833 354.5C938.306 354.5 939.5 355.694 939.5 357.167L939.5 367.833C939.5 369.306 938.306 370.5 936.833 370.5L926.167 370.5C924.694 370.5 923.5 369.306 923.5 367.833Z" stroke="#000000" stroke-width="1.33333" stroke-miterlimit="8" fill="#FFFFCF" fill-rule="evenodd"/><path d="M1001.83 338.5C1003.31 338.5 1004.5 339.694 1004.5 341.167L1004.5 351.833C1004.5 353.306 1003.31 354.5 1001.83 354.5L991.167 354.5C989.694 354.5 988.5 353.306 988.5 351.833L988.5 341.167C988.5 339.694 989.694 338.5 991.167 338.5Z" stroke="#000000" stroke-width="1.33333" stroke-miterlimit="8" fill="#FFFFCF" fill-rule="evenodd"/><path d="M988.5 373.167C988.5 371.694 989.694 370.5 991.167 370.5L1001.83 370.5C1003.31 370.5 1004.5 371.694 1004.5 373.167L1004.5 383.833C1004.5 385.306 1003.31 386.5 1001.83 386.5L991.167 386.5C989.694 386.5 988.5 385.306 988.5 383.833Z" stroke="#000000" stroke-width="1.33333" stroke-miterlimit="8" fill="#FFFFCF" fill-rule="evenodd"/><path d="M988.5 357.167C988.5 355.694 989.694 354.5 991.167 354.5L1001.83 354.5C1003.31 354.5 1004.5 355.694 1004.5 357.167L1004.5 367.833C1004.5 369.306 1003.31 370.5 1001.83 370.5L991.167 370.5C989.694 370.5 988.5 369.306 988.5 367.833Z" stroke="#000000" stroke-width="1.33333" stroke-miterlimit="8" fill="#FFFFCF" fill-rule="evenodd"/><path d="M1069.67 337.5C1071.23 337.5 1072.5 338.769 1072.5 340.333L1072.5 351.667C1072.5 353.232 1071.23 354.5 1069.67 354.5L1058.33 354.5C1056.77 354.5 1055.5 353.232 1055.5 351.667L1055.5 340.333C1055.5 338.769 1056.77 337.5 1058.33 337.5Z" stroke="#000000" stroke-width="1.33333" stroke-miterlimit="8" fill="#FFFFCF" fill-rule="evenodd"/><path d="M1055.5 373.167C1055.5 371.694 1056.69 370.5 1058.17 370.5L1069.83 370.5C1071.31 370.5 1072.5 371.694 1072.5 373.167L1072.5 383.833C1072.5 385.306 1071.31 386.5 1069.83 386.5L1058.17 386.5C1056.69 386.5 1055.5 385.306 1055.5 383.833Z" stroke="#000000" stroke-width="1.33333" stroke-miterlimit="8" fill="#FFFFCF" fill-rule="evenodd"/><path d="M1055.5 356.333C1055.5 354.769 1056.77 353.5 1058.33 353.5L1069.67 353.5C1071.23 353.5 1072.5 354.769 1072.5 356.333L1072.5 367.667C1072.5 369.232 1071.23 370.5 1069.67 370.5L1058.33 370.5C1056.77 370.5 1055.5 369.232 1055.5 367.667Z" stroke="#000000" stroke-width="1.33333" stroke-miterlimit="8" fill="#FFFFCF" fill-rule="evenodd"/><path d="M1068.83 400.5C1070.31 400.5 1071.5 401.694 1071.5 403.167L1071.5 413.833C1071.5 415.306 1070.31 416.5 1068.83 416.5L1058.17 416.5C1056.69 416.5 1055.5 415.306 1055.5 413.833L1055.5 403.167C1055.5 401.694 1056.69 400.5 1058.17 400.5Z" stroke="#000000" stroke-width="1.33333" stroke-miterlimit="8" fill="#FFFFCF" fill-rule="evenodd"/><path d="M1055.5 435.167C1055.5 433.694 1056.69 432.5 1058.17 432.5L1068.83 432.5C1070.31 432.5 1071.5 433.694 1071.5 435.167L1071.5 445.833C1071.5 447.306 1070.31 448.5 1068.83 448.5L1058.17 448.5C1056.69 448.5 1055.5 447.306 1055.5 445.833Z" stroke="#000000" stroke-width="1.33333" stroke-miterlimit="8" fill="#FFFFCF" fill-rule="evenodd"/><path d="M1055.5 419.167C1055.5 417.694 1056.69 416.5 1058.17 416.5L1068.83 416.5C1070.31 416.5 1071.5 417.694 1071.5 419.167L1071.5 429.833C1071.5 431.306 1070.31 432.5 1068.83 432.5L1058.17 432.5C1056.69 432.5 1055.5 431.306 1055.5 429.833Z" stroke="#000000" stroke-width="1.33333" stroke-miterlimit="8" fill="#FFFFCF" fill-rule="evenodd"/><path d="M1068.83 463.5C1070.31 463.5 1071.5 464.694 1071.5 466.167L1071.5 476.833C1071.5 478.306 1070.31 479.5 1068.83 479.5L1058.17 479.5C1056.69 479.5 1055.5 478.306 1055.5 476.833L1055.5 466.167C1055.5 464.694 1056.69 463.5 1058.17 463.5Z" stroke="#000000" stroke-width="1.33333" stroke-miterlimit="8" fill="#FFFFCF" fill-rule="evenodd"/><path d="M1055.5 498.167C1055.5 496.694 1056.69 495.5 1058.17 495.5L1068.83 495.5C1070.31 495.5 1071.5 496.694 1071.5 498.167L1071.5 508.833C1071.5 510.306 1070.31 511.5 1068.83 511.5L1058.17 511.5C1056.69 511.5 1055.5 510.306 1055.5 508.833Z" stroke="#000000" stroke-width="1.33333" stroke-miterlimit="8" fill="#FFFFCF" fill-rule="evenodd"/><path d="M1055.5 482.167C1055.5 480.694 1056.69 479.5 1058.17 479.5L1068.83 479.5C1070.31 479.5 1071.5 480.694 1071.5 482.167L1071.5 492.833C1071.5 494.306 1070.31 495.5 1068.83 495.5L1058.17 495.5C1056.69 495.5 1055.5 494.306 1055.5 492.833Z" stroke="#000000" stroke-width="1.33333" stroke-miterlimit="8" fill="#FFFFCF" fill-rule="evenodd"/><path d="M1136.83 338.5C1138.31 338.5 1139.5 339.694 1139.5 341.167L1139.5 351.833C1139.5 353.306 1138.31 354.5 1136.83 354.5L1126.17 354.5C1124.69 354.5 1123.5 353.306 1123.5 351.833L1123.5 341.167C1123.5 339.694 1124.69 338.5 1126.17 338.5Z" stroke="#000000" stroke-width="1.33333" stroke-miterlimit="8" fill="#FFFFCF" fill-rule="evenodd"/><path d="M1123.5 373.167C1123.5 371.694 1124.69 370.5 1126.17 370.5L1136.83 370.5C1138.31 370.5 1139.5 371.694 1139.5 373.167L1139.5 383.833C1139.5 385.306 1138.31 386.5 1136.83 386.5L1126.17 386.5C1124.69 386.5 1123.5 385.306 1123.5 383.833Z" stroke="#000000" stroke-width="1.33333" stroke-miterlimit="8" fill="#FFFFCF" fill-rule="evenodd"/><path d="M1123.5 357.167C1123.5 355.694 1124.69 354.5 1126.17 354.5L1136.83 354.5C1138.31 354.5 1139.5 355.694 1139.5 357.167L1139.5 367.833C1139.5 369.306 1138.31 370.5 1136.83 370.5L1126.17 370.5C1124.69 370.5 1123.5 369.306 1123.5 367.833Z" stroke="#000000" stroke-width="1.33333" stroke-miterlimit="8" fill="#FFFFCF" fill-rule="evenodd"/><path d="M1135.83 400.5C1137.31 400.5 1138.5 401.694 1138.5 403.167L1138.5 413.833C1138.5 415.306 1137.31 416.5 1135.83 416.5L1125.17 416.5C1123.69 416.5 1122.5 415.306 1122.5 413.833L1122.5 403.167C1122.5 401.694 1123.69 400.5 1125.17 400.5Z" stroke="#000000" stroke-width="1.33333" stroke-miterlimit="8" fill="#FFFFCF" fill-rule="evenodd"/><path d="M1122.5 435.167C1122.5 433.694 1123.69 432.5 1125.17 432.5L1135.83 432.5C1137.31 432.5 1138.5 433.694 1138.5 435.167L1138.5 445.833C1138.5 447.306 1137.31 448.5 1135.83 448.5L1125.17 448.5C1123.69 448.5 1122.5 447.306 1122.5 445.833Z" stroke="#000000" stroke-width="1.33333" stroke-miterlimit="8" fill="#FFFFCF" fill-rule="evenodd"/><path d="M1122.5 419.167C1122.5 417.694 1123.69 416.5 1125.17 416.5L1135.83 416.5C1137.31 416.5 1138.5 417.694 1138.5 419.167L1138.5 429.833C1138.5 431.306 1137.31 432.5 1135.83 432.5L1125.17 432.5C1123.69 432.5 1122.5 431.306 1122.5 429.833Z" stroke="#000000" stroke-width="1.33333" stroke-miterlimit="8" fill="#FFFFCF" fill-rule="evenodd"/><path d="M1184.83 400.5C1186.31 400.5 1187.5 401.694 1187.5 403.167L1187.5 413.833C1187.5 415.306 1186.31 416.5 1184.83 416.5L1174.17 416.5C1172.69 416.5 1171.5 415.306 1171.5 413.833L1171.5 403.167C1171.5 401.694 1172.69 400.5 1174.17 400.5Z" stroke="#000000" stroke-width="1.33333" stroke-miterlimit="8" fill="#FFFFCF" fill-rule="evenodd"/><path d="M1171.5 435.167C1171.5 433.694 1172.69 432.5 1174.17 432.5L1184.83 432.5C1186.31 432.5 1187.5 433.694 1187.5 435.167L1187.5 445.833C1187.5 447.306 1186.31 448.5 1184.83 448.5L1174.17 448.5C1172.69 448.5 1171.5 447.306 1171.5 445.833Z" stroke="#000000" stroke-width="1.33333" stroke-miterlimit="8" fill="#FFFFCF" fill-rule="evenodd"/><path d="M1171.5 419.167C1171.5 417.694 1172.69 416.5 1174.17 416.5L1184.83 416.5C1186.31 416.5 1187.5 417.694 1187.5 419.167L1187.5 429.833C1187.5 431.306 1186.31 432.5 1184.83 432.5L1174.17 432.5C1172.69 432.5 1171.5 431.306 1171.5 429.833Z" stroke="#000000" stroke-width="1.33333" stroke-miterlimit="8" fill="#FFFFCF" fill-rule="evenodd"/></g></svg>